# This file uses centimeters as units for non-parametric coordinates.

g default
v -0.434176 -0.000000 0.552021
v 0.565824 -0.000000 0.552021
v -0.434176 0.000000 -0.447979
v 0.565824 0.000000 -0.447979
v -0.682096 -0.000000 0.215122
v -0.682096 0.000000 -0.111080
v -0.961673 -0.000000 0.215122
v -0.961673 -0.000000 -0.111080
vt 0.000000 0.000000
vt 1.000000 0.000000
vt 0.000000 1.000000
vt 1.000000 1.000000
vt 0.000000 0.000000
vt 1.000000 0.000000
vt 1.000000 1.000000
vt 0.000000 1.000000
vt 0.000000 0.000000
vt 1.000000 0.000000
vt 1.000000 1.000000
vt 0.000000 1.000000
vn -0.000000 1.000000 0.000000
vn 0.000000 1.000000 0.000000
vn -0.000000 1.000000 0.000000
vn 0.000000 1.000000 0.000000
vn -0.000000 1.000000 0.000000
vn -0.000000 1.000000 0.000000
vn -0.000000 1.000000 0.000000
vn -0.000000 1.000000 0.000000
s 1
g pPlane1
f 1/1/1 2/2/2 3/3/3
f 3/3/3 2/2/2 4/4/4
f 1/5/1 3/6/3 5/8/5
f 5/8/5 3/6/3 6/7/6
f 5/9/5 6/10/6 7/12/7
f 7/12/7 6/10/6 8/11/8
